<mxfile host="app.diagrams.net" modified="2023-09-05T07:14:55.769Z" agent="Mozilla/5.0 (X11; Linux x86_64) AppleWebKit/537.36 (KHTML, like Gecko) Chrome/116.0.0.0 Safari/537.36" version="21.7.2" etag="9Kd5t1D1IrggWy5v8i_D" type="github">
  <diagram name="Page-1" id="cIzp0eu7WF7Dtg4v5AOr">
    <mxGraphModel>
      <root>
        <mxCell id="0" />
        <mxCell id="1" parent="0" />
      </root>
    </mxGraphModel>
  </diagram>
</mxfile>
